<svg width="1033" height="1024" viewBox="0 0 1033 1024" fill="none" xmlns="http://www.w3.org/2000/svg">
<rect width="1024" height="1024" fill="#FCAC19"/>
<rect x="512" width="512" height="1024" fill="#28397F"/>
<rect x="512" y="289" width="78" height="191" fill="#FCAC19"/>
<path d="M558.891 628.734H470.219C467.354 628.734 465.922 627.693 465.922 625.609V582.25C465.922 560.896 470.87 539.542 480.766 518.188C490.661 496.573 504.203 477.172 521.391 459.984C529.464 451.911 536.365 444.88 542.094 438.891C548.083 432.641 552.901 427.302 556.547 422.875C564.099 414.021 568.917 405.948 571 398.656C573.083 391.104 574.125 382.25 574.125 372.094C574.125 353.344 568.526 337.719 557.328 325.219C546.13 312.719 531.938 306.469 514.75 306.469C497.823 306.469 483.63 312.719 472.172 325.219C460.714 337.719 454.984 353.344 454.984 372.094V430.297C454.984 432.38 453.943 433.422 451.859 433.422H361.234C359.151 433.422 358.109 432.38 358.109 430.297V372.094C358.109 342.146 365.271 314.932 379.594 290.453C393.656 265.974 412.536 246.573 436.234 232.25C459.932 217.667 486.104 210.375 514.75 210.375C543.656 210.375 569.958 217.536 593.656 231.859C617.354 246.182 636.104 265.714 649.906 290.453C663.969 314.932 671 342.146 671 372.094C671 389.021 669.177 404.516 665.531 418.578C661.625 432.12 654.594 446.312 644.438 461.156C634.281 475.74 619.307 493.969 599.516 515.844C586.234 529.385 576.729 541.495 571 552.172C565.531 562.849 562.797 574.568 562.797 587.328V625.609C562.797 627.693 561.495 628.734 558.891 628.734ZM558.891 776H470.219C467.354 776 465.922 774.698 465.922 772.094V683.031C465.922 680.948 467.354 679.906 470.219 679.906H558.891C561.495 679.906 562.797 680.948 562.797 683.031V772.094C562.797 774.698 561.495 776 558.891 776Z" fill="white"/>
</svg>
